<?xml version="1.0" encoding="UTF-8"?><svg id="Layer_1" xmlns="http://www.w3.org/2000/svg" width="218.54" height="161.09" viewBox="0 0 218.54 161.09"><defs><style>.cls-1{stroke-width:2px;}.cls-1,.cls-2{fill:none;stroke:#fff;stroke-miterlimit:10;}</style></defs><g><path class="cls-2" d="M5.82,21.52c-4.41,1.26-5.33,1.99-5.32,4.77,.02,11.27,.09,22.55,.2,33.82,.07,6.7,.39,13.39,.38,20.09-.01,13.23-.21,26.46-.26,39.68-.03,6.52,0,13.04,.22,19.56,.04,1.26,1.09,2.52,1.78,3.73,.54,.96,1.16,1.9,1.89,2.72,.9,1.03,1.79,2.26,2.96,2.83,1.15,.56,2.64,.52,3.98,.53,21.63,.22,43.26,.38,64.88,.65,1.42,.02,3.06,.44,4.21,1.24,18,12.51,42.61,12.63,60.82,.26,.9-.61,2.17-.98,3.25-.95,20.26,.51,40.53,1.11,60.79,1.67,2.03,.06,4.09,.2,6.1,0,4.02-.41,5.19-1.67,5.19-5.73-.01-6.76-.36-13.53-.28-20.29,.43-32.82,.96-65.64,1.42-98.46,.07-4.83-.1-4.93-4.73-6.48,.05-.54-.11-1.28,.18-1.66,1.37-1.81,1.67-3.08-.76-4.43-1.5-.83-2.5-2.54-3.75-3.83-.09-.09-.33-.03-.5-.03-10.86,0-21.71,0-32.57,.03-.61,0-1.64,.24-1.76,.6-.96,2.94-5.69,4.63-2.99,8.79,.03,.05-.17,.24-.32,.44-5.37,0-10.79,.09-16.2-.07-1.29-.04-2.82-.61-3.8-1.45-6.32-5.39-12.59-10.85-18.73-16.44-2.09-1.9-4.24-2.77-7.07-2.58-3.38,.22-6.79-.06-10.17,.11-1.24,.06-2.65,.54-3.65,1.28-4.05,3.03-7.97,6.24-12.56,9.87,.8-2.95-.66-2.92-2.26-2.91-7.72,.03-15.44,0-23.16,.02-.64,0-1.29,.13-1.99,.2v3.49c.93,.13,1.73,.25,2.85,.4-.27,2.58-.53,5.04-.84,7.92h-23.83c.35-1.39,.31-2.65,.92-3.36,2.22-2.58,2.3-2.5-.16-4.94-.28-.28-.5-.67-.65-1.05-.78-2.04-2.33-2.76-4.4-2.72-1.67,.04-3.34,0-5.08,0-.12-1.29-.21-2.27-.33-3.53h-5.9c-.12-1.59-.22-2.9-.33-4.29h-11.29c-.08,1.52-.16,2.84-.25,4.42h-5.72c-.13,1.25-.23,2.23-.35,3.4-1.42,0-2.73,.22-3.93-.04-4.51-.98-5.82,2.86-7.97,5.3-.39,.44-.16,2.19,.33,2.51,2,1.32,1.52,3.12,1.52,4.88Z"/><path class="cls-2" d="M213.29,21.16c.05-.54-.11-1.28,.18-1.66,1.37-1.81,1.67-3.08-.76-4.43-1.5-.83-2.5-2.54-3.75-3.83-.09-.09-.33-.03-.5-.03-10.86,0-21.71,0-32.57,.03-.61,0-1.64,.24-1.76,.6-.96,2.94-5.69,4.63-2.99,8.79,.03,.05-.17,.24-.32,.44-5.37,0-10.79,.09-16.2-.07-1.29-.04-2.82-.61-3.8-1.45-6.32-5.39-12.59-10.85-18.73-16.44-2.09-1.9-4.24-2.77-7.07-2.58-3.38,.22-6.79-.06-10.17,.11-1.24,.06-2.65,.54-3.65,1.28-4.05,3.03-7.97,6.24-12.56,9.87,.8-2.95-.66-2.92-2.26-2.91-7.72,.04-15.44,0-23.16,.02-.64,0-1.29,.13-1.99,.2v3.49c.93,.13,1.73,.25,2.85,.4-.27,2.58-.53,5.04-.84,7.92h-23.83c.35-1.39,.31-2.65,.92-3.36,2.22-2.58,2.3-2.5-.16-4.94-.28-.28-.5-.67-.65-1.05-.78-2.04-2.33-2.76-4.4-2.72-1.67,.04-3.34,0-5.08,0-.12-1.29-.21-2.27-.33-3.53h-5.9c-.12-1.59-.22-2.9-.33-4.29h-11.29c-.09,1.52-.16,2.84-.25,4.42h-5.72c-.13,1.25-.23,2.23-.35,3.4-1.42,0-2.73,.22-3.93-.04-4.52-.98-5.82,2.86-7.97,5.3-.39,.44-.16,2.19,.33,2.51,2,1.32,1.52,3.12,1.52,4.88-4.41,1.26-5.33,1.99-5.32,4.77,.02,11.27,.09,22.55,.2,33.82,.07,6.7,.39,13.39,.38,20.09-.01,13.23-.21,26.46-.26,39.68-.03,6.52,0,13.04,.22,19.56,.04,1.26,1.09,2.52,1.78,3.73,.54,.96,1.16,1.9,1.89,2.72,.9,1.03,1.79,2.26,2.96,2.83,1.15,.56,2.64,.52,3.98,.53,21.63,.22,43.26,.38,64.88,.65,1.42,.02,3.06,.44,4.21,1.24,18,12.51,42.61,12.63,60.82,.26,.9-.61,2.17-.98,3.25-.95,20.26,.51,40.53,1.11,60.79,1.67,2.03,.06,4.09,.2,6.1,0,4.02-.41,5.19-1.67,5.19-5.73-.01-6.76-.36-13.53-.28-20.29,.43-32.82,.96-65.64,1.42-98.46,.07-4.83-.1-4.93-4.73-6.48Zm-36.46-8.69c10.18,.03,20.35-.03,30.53,.07,.94,0,1.87,.93,2.81,1.43-.15,.33-.3,.66-.46,.99h-35.21c0-1.69,.59-2.5,2.33-2.49Zm36.21,4.85c-1.49,1.01-38.83,1.21-41.55,.12,1.94-1.41,39.94-1.38,41.55-.12Zm-1.18,3.32c-.66,.31-1.33,.89-1.99,.89-11.69-.06-23.38-.18-35.07-.34-.69,0-1.38-.53-2.07-.82,.68-.29,1.36-.83,2.04-.84,5.93-.07,11.86-.04,17.79-.04,5.76,0,11.52-.04,17.28,.05,.68,.01,1.35,.71,2.02,1.09ZM72.68,11.05c0-.18,0-.37,0-.55h24.58c0,.18,0,.37,0,.55h-24.58Zm2.98,4.47c-.63-1.96-.1-2.63,1.67-2.6,5.16,.07,10.32-.01,15.48,.08,.6,.01,1.19,.74,1.79,1.14-.54,.46-1.07,1.31-1.61,1.32-5.74,.1-11.48,.06-17.33,.06Zm14.3,3.78c-.93,.39-1.85,1.08-2.81,1.13-3.45,.17-6.92,.17-10.38,.11-.54,0-1.07-.65-1.6-1,.48-.33,.96-.95,1.44-.96,4.37-.08,8.74-.04,13.11-.04,.07,.25,.15,.51,.22,.76ZM31.68,2.84v2.34h-7.69c-.07-.69-.14-1.4-.23-2.34h7.92Zm-12.21,4.36c2.87-.08,5.74-.04,8.61-.04,2.87,0,5.74-.03,8.61,.04,.47,.01,.94,.45,1.41,.69-.47,.33-.94,.93-1.42,.93-5.74,.07-11.48,.06-17.22,0-.51,0-1.01-.55-1.52-.84,.51-.28,1.02-.78,1.53-.79Zm-9.22,3.51c11.7-.06,23.39-.06,35.09,0,.83,0,1.66,.57,2.49,.88l-.22,.7H8c-.07-.24-.14-.48-.21-.72,.82-.3,1.64-.86,2.46-.86Zm-4.77,4.45c1.36-1.08,41.76-1.39,44.76-.25-1.71,1.45-42.9,1.53-44.76,.25Zm39.87,5.99c-11.51,.1-23.01,.35-34.52,.53-3.3,.05-3.39-.06-3.05-3.72H47.8c.69,2.46-.16,3.17-2.44,3.18ZM3.36,138.01c-.14-11.43-.02-22.87-.26-34.3-.19-9.15-.86-18.29-1.12-27.43-.18-6.59-.04-13.19-.04-19.68H76.74c.79,4.24,.04,7.05-3.04,9.7-7.17,6.19-10.56,14.74-13.43,23.52-6.08,18.61-2.28,35.38,9.27,50.75,.44,.58,.87,1.16,1.56,2.06-3.92,0-7.43,.03-10.95,0-17.46-.17-34.92-.37-52.38-.55-3.39-.04-4.37-.78-4.41-4.07Zm71.68,9.22c-9.58,0-19.16,.06-28.73-.01-11.7-.09-23.41-.27-35.11-.43-1.55-.02-3.25,.2-4.37-2.04,1.09-.1,1.95-.26,2.79-.25,20.78,.23,41.56,.47,62.34,.78,1.15,.02,2.29,.73,3.44,1.12-.12,.28-.24,.55-.36,.83Zm37.44,11.15c-29.31,.02-54.59-24.44-53.37-54.01,.73-17.68,8.99-33.47,23.57-42.54,0,0,.01-.02,.02-.03,.08-.1,.17-.2,.27-.29,.3-.27,.63-.52,.97-.74,.47-.31,.98-.56,1.44-.88,.04-.02,.08-.04,.11-.06,.62-.53,1.3-.99,1.99-1.41,.89-.55,1.76-1.13,2.66-1.67,1-.6,2.04-1.14,3.05-1.72,.26-.15,.51-.29,.77-.42-.03,0-.06,.01-.09,.02,17.39-10,41.6-7.15,57.93,7.39,18.7,16.65,22.4,40.37,15.39,56.79-.03,.1-.07,.2-.12,.29-.02,.04-.03,.08-.05,.12,0-.01,0-.02,0-.04-.05,.17-.13,.33-.23,.47-.03,.08-.06,.16-.09,.23,0,0,0,.01,0,.02,0,0,0,.01-.01,.02,0,0,0,0,0,0,0,0,0,.01-.01,.02-.05,.19-.13,.37-.25,.52-.05,.09-.11,.17-.18,.25-.04,.1-.08,.19-.14,.27-.1,.24-.24,.45-.45,.6-.67,1.43-1.39,2.83-2.08,4.19-2.15,4.16-5.05,7.78-8.14,11.27-.4,.46-.89,.56-1.33,.44-9.07,11.96-23.87,20.88-41.61,20.89Zm99.92-8.84c-.92,.13-1.85,.26-2.77,.23-20.43-.51-40.86-1.04-61.29-1.58-.39-.01-.77-.09-1.55-.19,2.35-2.08,4.3-3.31,7.39-3.14,17.95,.93,35.91,1.61,53.88,2.3,2,.08,4.02-.29,6.2-.46,.4,1.8-.34,2.62-1.86,2.84Zm3.68-88.09c-.38,23.15-.74,46.29-1.15,69.44-.07,3.8-.22,7.6-.56,11.38-.07,.83-.98,1.95-1.77,2.26-1.3,.51-2.82,.66-4.24,.63-18.14-.3-36.29-.65-54.43-.99-.39,0-.78-.09-1.39-.16,2.41-2.53,4.84-4.65,6.74-7.17,14.07-18.61,17.79-41.76,5.59-62.84-.75-1.3-1.09-2.98-1.17-4.51-.17-3.37-.05-6.76-.05-10.52,17.43-.33,34.76-.65,52.43-.98,0,1.35,.02,2.42,0,3.49Zm.76-33.76c-.3,8.73-.46,17.46-.59,26.19-.02,1.65-.4,2.44-2.24,2.46-16.28,.25-32.56,.57-48.84,.86-.5,0-1-.09-1.58-.14-1.76-10.54-.06-21.3-1.92-31.77-.36-.02-.73-.05-1.09-.07-.08,.81-.28,1.63-.24,2.44,.72,13.46,1.48,26.92,2.22,40.38,.02,.42,0,.84,0,1.18-25.53-28.41-53.53-31.07-84.13-8.42,.22-5.13,.59-10.43,.65-15.73,.08-6.17-.09-12.35-.18-18.52,0-.36-.29-1.03-.42-1.02-.43,.02-1.17,.22-1.22,.47-.25,1.21-.44,2.46-.44,3.7,.04,8.14,.14,16.27,.21,24.41,0,.23-.14,.46-.27,.85-.81,.04-1.64,.12-2.46,.11-22.73-.15-45.46-.3-68.19-.47-3.81-.03-3.73-.05-3.82-3.98-.18-7.63-.48-15.25-.68-22.88-.1-3.94,.69-4.73,4.72-4.78,14.67-.18,29.34-.33,44.01-.5,10.94-.13,21.88-.48,32.82-.28,3.15,.06,5.4-.86,7.73-2.58,7.03-5.18,14.09-10.31,21.22-15.36,1.02-.72,2.43-1.11,3.69-1.2,2.45-.18,4.94,.16,7.37-.1,3.55-.39,6.23,.82,8.94,3.09,5.98,5,12.27,9.63,18.4,14.45,1.66,1.3,3.19,2.04,5.56,1.85,4.46-.37,8.98,.03,13.47,.07,14.25,.12,28.49,.2,42.74,.32,4.31,.04,4.71,.67,4.56,4.96Z"/><path class="cls-2" d="M76.76,54.94c-.81,.04-1.64,.12-2.46,.11-22.73-.15-45.46-.3-68.19-.47-3.81-.03-3.73-.05-3.82-3.98-.18-7.63-.48-15.25-.68-22.88-.1-3.94,.69-4.73,4.72-4.78,14.67-.18,29.34-.33,44.01-.5,10.94-.13,21.88-.48,32.82-.28,3.15,.06,5.4-.86,7.73-2.58,7.03-5.18,14.09-10.31,21.22-15.36,1.02-.72,2.43-1.11,3.69-1.2,2.45-.18,4.94,.16,7.37-.1,3.55-.39,6.23,.82,8.94,3.09,5.98,5,12.27,9.63,18.4,14.45,1.66,1.3,3.19,2.04,5.56,1.85,4.46-.37,8.98,.03,13.47,.07,14.25,.12,28.49,.2,42.74,.32,4.31,.04,4.71,.67,4.56,4.96-.3,8.73-.46,17.46-.59,26.19-.02,1.65-.4,2.44-2.24,2.46-16.28,.25-32.56,.57-48.84,.86-.5,0-1-.09-1.58-.14-1.76-10.54-.06-21.3-1.92-31.77-.36-.02-.73-.05-1.09-.07-.08,.81-.28,1.63-.24,2.44,.72,13.46,1.48,26.92,2.22,40.38,.02,.42,0,.84,0,1.18-25.53-28.41-53.53-31.07-84.13-8.42,.22-5.13,.59-10.43,.65-15.73,.08-6.17-.09-12.35-.18-18.52,0-.36-.29-1.03-.42-1.02-.43,.02-1.17,.22-1.22,.47-.25,1.21-.44,2.46-.44,3.7,.04,8.14,.14,16.27,.21,24.41,0,.23-.14,.46-.27,.85Zm4.75-30.75c-.01,.36-.03,.71-.04,1.07,2.57,.25,5.13,.72,7.7,.72,6.52,0,13.05-.42,19.57-.28,8.73,.19,17.44,.94,26.17,1.08,7.61,.12,15.23-.26,22.85-.43,0-.24,0-.47,0-.71-.65-.12-1.3-.34-1.96-.36-9.15-.32-18.29-.71-27.44-.89-9.23-.18-18.45-.17-27.68-.21-6.39-.03-12.78,0-19.18,0Zm-73.88,.89c24.28,1.58,58.91,1.25,61.74-.93-20.58,.31-41.16,.62-61.74,.93Zm199.67-.61h-31.83c3.42,1.88,24.11,1.87,31.83,0Z"/><path class="cls-2" d="M76.74,56.6c.79,4.24,.04,7.05-3.04,9.7-7.17,6.19-10.56,14.74-13.43,23.52-6.08,18.61-2.28,35.38,9.27,50.75,.44,.58,.87,1.16,1.56,2.06-3.92,0-7.43,.03-10.95,0-17.46-.17-34.92-.37-52.38-.55-3.39-.04-4.37-.78-4.41-4.07-.14-11.43-.02-22.87-.26-34.3-.19-9.15-.86-18.29-1.12-27.43-.18-6.59-.04-13.19-.04-19.68H76.74Z"/><path class="cls-2" d="M216.08,57.95c-17.67,.33-35,.66-52.43,.98,0,3.77-.12,7.15,.05,10.52,.08,1.53,.42,3.21,1.17,4.51,12.2,21.07,8.48,44.23-5.59,62.84-1.91,2.52-4.34,4.64-6.74,7.17,.61,.07,1,.16,1.39,.16,18.14,.34,36.28,.7,54.43,.99,1.42,.02,2.94-.12,4.24-.63,.79-.31,1.69-1.43,1.77-2.26,.34-3.78,.5-7.58,.56-11.38,.41-23.15,.77-46.29,1.15-69.44,.02-1.07,0-2.14,0-3.49Zm-31.19,21.9c-6.45,0-6.43-10,0-10s6.43,10,0,10Z"/><path class="cls-2" d="M214.26,146.68c.4,1.8-.34,2.62-1.86,2.84-.92,.13-1.85,.26-2.77,.23-20.43-.51-40.86-1.04-61.29-1.58-.39-.01-.77-.09-1.55-.19,2.35-2.08,4.3-3.31,7.39-3.14,17.95,.93,35.91,1.61,53.88,2.3,2,.08,4.02-.29,6.2-.46Z"/><path class="cls-2" d="M75.04,147.22c-9.58,0-19.16,.06-28.73-.01-11.7-.09-23.41-.27-35.11-.43-1.55-.02-3.25,.2-4.37-2.04,1.09-.1,1.95-.26,2.79-.25,20.78,.23,41.56,.47,62.34,.78,1.15,.02,2.29,.73,3.44,1.12-.12,.28-.24,.55-.36,.83Z"/><path class="cls-2" d="M47.8,17.97c.69,2.46-.16,3.17-2.44,3.18-11.51,.1-23.01,.35-34.52,.53-3.3,.05-3.39-.06-3.05-3.72H47.8Z"/><path class="cls-2" d="M209.71,14.96h-35.21c0-1.69,.59-2.5,2.33-2.49,10.18,.03,20.35-.03,30.53,.07,.94,0,1.87,.93,2.81,1.43-.15,.33-.3,.66-.46,.99Z"/><path class="cls-2" d="M192.56,19.49c5.76,0,11.52-.04,17.28,.05,.68,.01,1.35,.71,2.02,1.09-.66,.31-1.33,.89-1.99,.89-11.69-.06-23.38-.18-35.07-.34-.69,0-1.38-.53-2.07-.82,.68-.29,1.36-.83,2.04-.84,5.93-.07,11.86-.04,17.79-.04Z"/><path class="cls-2" d="M50.24,14.91c-1.71,1.45-42.9,1.53-44.76,.25,1.36-1.08,41.76-1.39,44.76-.25Z"/><path class="cls-2" d="M171.49,17.44c1.94-1.41,39.94-1.38,41.55-.12-1.49,1.01-38.83,1.21-41.55,.12Z"/><path class="cls-2" d="M7.79,11.57c.82-.3,1.64-.86,2.46-.86,11.7-.06,23.39-.06,35.09,0,.83,0,1.66,.57,2.49,.88-.07,.23-.14,.47-.22,.7H8c-.07-.24-.14-.48-.21-.72Z"/><path class="cls-2" d="M75.65,15.52c-.63-1.96-.1-2.63,1.67-2.6,5.16,.07,10.32,0,15.48,.08,.6,.01,1.19,.74,1.79,1.14-.54,.46-1.07,1.31-1.61,1.32-5.74,.1-11.48,.06-17.33,.06Z"/><path class="cls-2" d="M28.08,7.16c2.87,0,5.74-.03,8.61,.03,.47,.01,.94,.45,1.41,.69-.47,.33-.94,.93-1.42,.93-5.74,.07-11.48,.06-17.22,0-.51,0-1.01-.55-1.52-.84,.51-.28,1.02-.78,1.53-.79,2.87-.08,5.74-.04,8.61-.04Z"/><path class="cls-2" d="M89.96,19.3c-.93,.39-1.85,1.08-2.81,1.13-3.45,.17-6.92,.17-10.38,.11-.54,0-1.07-.65-1.6-1,.48-.33,.96-.95,1.44-.96,4.37-.08,8.74-.04,13.11-.04,.07,.25,.15,.51,.22,.76Z"/><path class="cls-2" d="M72.67,10.5h24.58c0,.18,0,.37,0,.55h-24.58c0-.18,0-.37,0-.55Z"/><path class="cls-2" d="M31.68,2.84v2.34h-7.69c-.07-.69-.14-1.4-.23-2.34h7.92Z"/><path class="cls-2" d="M81.51,24.19c6.39,0,12.78-.02,19.18,0,9.23,.04,18.46,.03,27.68,.21,9.15,.18,18.29,.57,27.44,.89,.66,.02,1.3,.23,1.96,.36,0,.24,0,.47,0,.71-7.62,.16-15.24,.55-22.85,.43-8.73-.14-17.44-.9-26.17-1.08-6.52-.14-13.05,.28-19.57,.28-2.57,0-5.13-.47-7.7-.72,.01-.36,.03-.71,.04-1.07Z"/><path class="cls-2" d="M7.63,25.08c20.58-.31,41.16-.62,61.74-.93-2.83,2.18-37.47,2.51-61.74,.93Z"/><path class="cls-2" d="M207.3,24.47c-7.72,1.87-28.41,1.88-31.83,0h31.83Z"/><circle class="cls-1" cx="114.25" cy="103.31" r="50.5"/></g><g><ellipse class="cls-1" cx="113.3" cy="103.29" rx="40.45" ry="39.48"/><circle class="cls-1" cx="113.75" cy="103.81" r="29"/><path class="cls-2" d="M100.25,99.31c0-3.65,21.69-22,26-22"/><path class="cls-2" d="M100.25,99.31c0-7.63,4.01-23,6-23"/><path class="cls-2" d="M100.25,99.31c0,4.64,4.01,14,6,14"/><path class="cls-2" d="M86.25,93.31c0,6.63,13.37,20,20,20"/><path class="cls-2" d="M105.75,112.81c0,1.16,7.69,3.5,11.5,3.5"/><path class="cls-2" d="M117.25,116.31c0,1.33-18.05,4-27,4"/><path class="cls-2" d="M130.75,107.81c0,2.82-9.02,8.5-13.5,8.5"/><path class="cls-2" d="M130.75,107.81c0,8.13-11.03,24.5-16.5,24.5"/><path class="cls-2" d="M130.75,108.31c0-5.47-2.01-16.5-3-16.5"/><path class="cls-2" d="M141.25,112.31c0-6.8-9.02-20.5-13.5-20.5"/><path class="cls-2" d="M128.75,92.81c0-1.66-12.03-5-18-5"/></g></svg>